
<svg height="656pt" viewBox="0.00 0.00 1442.50 656.00" width="1443pt" xmlns="http://www.w3.org/2000/svg" xmlns:xlink="http://www.w3.org/1999/xlink">
<g class="graph" id="graph0" transform="scale(1 1) rotate(0) translate(4 652)">
<title>G</title>
<polygon fill="#ffffff" points="-4,4 -4,-652 1438.5,-652 1438.5,4 -4,4" stroke="transparent"/>
<!-- Read alignment\n(BAM) -->
<g class="node" id="node1">
<title>Read alignment\n(BAM)</title>
<polygon fill="none" points="949.5,-648 846.5,-648 842.5,-644 842.5,-610 945.5,-610 949.5,-614 949.5,-648" stroke="#000000"/>
<polyline fill="none" points="945.5,-644 842.5,-644 " stroke="#000000"/>
<polyline fill="none" points="945.5,-644 945.5,-610 " stroke="#000000"/>
<polyline fill="none" points="945.5,-644 949.5,-648 " stroke="#000000"/>
<text fill="#000000" font-family="Times,serif" font-size="14.00" text-anchor="middle" x="896" y="-632.8">Read alignment</text>
<text fill="#000000" font-family="Times,serif" font-size="14.00" text-anchor="middle" x="896" y="-617.8">(BAM)</text>
</g>
<!-- clipped_reads.py -->
<g class="node" id="node6">
<title>clipped_reads.py</title>
<polygon fill="none" points="114,-572 0,-572 0,-536 114,-536 114,-572" stroke="#000000"/>
<text fill="#000000" font-family="Times,serif" font-size="14.00" text-anchor="middle" x="57" y="-550.3">clipped_reads.py</text>
</g>
<!-- Read alignment\n(BAM)&#45;&gt;clipped_reads.py -->
<g class="edge" id="edge2">
<title>Read alignment\n(BAM)-&gt;clipped_reads.py</title>
<path d="M842.488,-626.5752C694.3487,-619.637 280.0792,-598.6496 123.9699,-572.9164" fill="none" stroke="#000000"/>
<polygon fill="#000000" points="124.5144,-569.4588 114.0661,-571.2147 123.3289,-576.3577 124.5144,-569.4588" stroke="#000000"/>
</g>
<!-- clipped_read_pos.py -->
<g class="node" id="node8">
<title>clipped_read_pos.py</title>
<polygon fill="none" points="723.5,-572 586.5,-572 586.5,-536 723.5,-536 723.5,-572" stroke="#000000"/>
<text fill="#000000" font-family="Times,serif" font-size="14.00" text-anchor="middle" x="655" y="-550.3">clipped_read_pos.py</text>
</g>
<!-- Read alignment\n(BAM)&#45;&gt;clipped_read_pos.py -->
<g class="edge" id="edge4">
<title>Read alignment\n(BAM)-&gt;clipped_read_pos.py</title>
<path d="M842.2149,-612.2619C807.0671,-601.3238 760.8614,-586.9444 723.1483,-575.208" fill="none" stroke="#000000"/>
<polygon fill="#000000" points="723.8437,-571.7589 713.2553,-572.1293 721.7636,-578.4427 723.8437,-571.7589" stroke="#000000"/>
</g>
<!-- split_reads.py -->
<g class="node" id="node10">
<title>split_reads.py</title>
<polygon fill="none" points="944,-572 848,-572 848,-536 944,-536 944,-572" stroke="#000000"/>
<text fill="#000000" font-family="Times,serif" font-size="14.00" text-anchor="middle" x="896" y="-550.3">split_reads.py</text>
</g>
<!-- Read alignment\n(BAM)&#45;&gt;split_reads.py -->
<g class="edge" id="edge6">
<title>Read alignment\n(BAM)-&gt;split_reads.py</title>
<path d="M896,-609.6856C896,-601.3877 896,-591.5222 896,-582.4169" fill="none" stroke="#000000"/>
<polygon fill="#000000" points="899.5001,-582.2167 896,-572.2167 892.5001,-582.2168 899.5001,-582.2167" stroke="#000000"/>
</g>
<!-- clipped_read_distance\n(JSON.GZ) -->
<g class="node" id="node13">
<title>clipped_read_distance\n(JSON.GZ)</title>
<polygon fill="none" points="275.5,-573 136.5,-573 132.5,-569 132.5,-535 271.5,-535 275.5,-539 275.5,-573" stroke="#000000"/>
<polyline fill="none" points="271.5,-569 132.5,-569 " stroke="#000000"/>
<polyline fill="none" points="271.5,-569 271.5,-535 " stroke="#000000"/>
<polyline fill="none" points="271.5,-569 275.5,-573 " stroke="#000000"/>
<text fill="#000000" font-family="Times,serif" font-size="14.00" text-anchor="middle" x="204" y="-557.8">clipped_read_distance</text>
<text fill="#000000" font-family="Times,serif" font-size="14.00" text-anchor="middle" x="204" y="-542.8">(JSON.GZ)</text>
</g>
<!-- Read alignment\n(BAM)&#45;&gt;clipped_read_distance\n(JSON.GZ) -->
<g class="edge" id="edge8">
<title>Read alignment\n(BAM)-&gt;clipped_read_distance\n(JSON.GZ)</title>
<path d="M842.4751,-625.0559C717.6869,-615.7094 409.3358,-591.704 285.8529,-572.9755" fill="none" stroke="#000000"/>
<polygon fill="#000000" points="286.3073,-569.504 275.8852,-571.4089 285.2205,-576.4191 286.3073,-569.504" stroke="#000000"/>
</g>
<!-- label_windows.py -->
<g class="node" id="node20">
<title>label_windows.py</title>
<polygon fill="none" points="1042,-409 920,-409 920,-373 1042,-373 1042,-409" stroke="#000000"/>
<text fill="#000000" font-family="Times,serif" font-size="14.00" text-anchor="middle" x="981" y="-387.3">label_windows.py</text>
</g>
<!-- Read alignment\n(BAM)&#45;&gt;label_windows.py -->
<g class="edge" id="edge21">
<title>Read alignment\n(BAM)-&gt;label_windows.py</title>
<path d="M913.7502,-609.9241C924.2714,-600.1628 936.6626,-587.3221 944,-573 969.4724,-523.2794 973.2161,-456.6332 975.8892,-419.337" fill="none" stroke="#000000"/>
<polygon fill="#000000" points="979.392,-419.4336 976.6694,-409.1946 972.4127,-418.8967 979.392,-419.4336" stroke="#000000"/>
</g>
<!-- Read alignment\n(BAM)&#45;&gt;label_windows.py -->
<g class="edge" id="edge25">
<title>Read alignment\n(BAM)-&gt;label_windows.py</title>
<path d="M930.0755,-609.9241C942.2714,-600.1628 954.6626,-587.3221 962,-573 987.4724,-523.2794 991.2161,-456.6332 988.1638,-419.337" fill="none" stroke="#000000"/>
<polygon fill="#000000" points="991.6226,-418.7642 987.0757,-409.1946 984.6625,-419.511 991.6226,-418.7642" stroke="#000000"/>
</g>
<!-- add_win_channels.py -->
<g class="node" id="node23">
<title>add_win_channels.py</title>
<polygon fill="none" points="1170.5,-112 1027.5,-112 1027.5,-76 1170.5,-76 1170.5,-112" stroke="#000000"/>
<text fill="#000000" font-family="Times,serif" font-size="14.00" text-anchor="middle" x="1099" y="-90.3">add_win_channels.py</text>
</g>
<!-- Read alignment\n(BAM)&#45;&gt;add_win_channels.py -->
<g class="edge" id="edge30">
<title>Read alignment\n(BAM)-&gt;add_win_channels.py</title>
<path d="M949.7663,-623.4565C1021.8861,-614.5013 1141,-593.7012 1141,-554 1141,-554 1141,-554 1141,-169 1141,-151.3716 1132.0576,-134.0431 1122.4254,-120.491" fill="none" stroke="#000000"/>
<polygon fill="#000000" points="1124.9271,-117.9993 1116.083,-112.1655 1119.3588,-122.2412 1124.9271,-117.9993" stroke="#000000"/>
</g>
<!-- GEM mappability track\n(BigWig) -->
<g class="node" id="node2">
<title>GEM mappability track\n(BigWig)</title>
<polygon fill="none" points="702,-484 554,-484 550,-480 550,-446 698,-446 702,-450 702,-484" stroke="#000000"/>
<polyline fill="none" points="698,-480 550,-480 " stroke="#000000"/>
<polyline fill="none" points="698,-480 698,-446 " stroke="#000000"/>
<polyline fill="none" points="698,-480 702,-484 " stroke="#000000"/>
<text fill="#000000" font-family="Times,serif" font-size="14.00" text-anchor="middle" x="626" y="-468.8">GEM mappability track</text>
<text fill="#000000" font-family="Times,serif" font-size="14.00" text-anchor="middle" x="626" y="-453.8">(BigWig)</text>
</g>
<!-- chr_array.py -->
<g class="node" id="node18">
<title>chr_array.py</title>
<polygon fill="none" points="517.5,-409 428.5,-409 428.5,-373 517.5,-373 517.5,-409" stroke="#000000"/>
<text fill="#000000" font-family="Times,serif" font-size="14.00" text-anchor="middle" x="473" y="-387.3">chr_array.py</text>
</g>
<!-- GEM mappability track\n(BigWig)&#45;&gt;chr_array.py -->
<g class="edge" id="edge18">
<title>GEM mappability track\n(BigWig)-&gt;chr_array.py</title>
<path d="M586.5987,-445.9432C566.16,-436.0578 541.0596,-423.9177 519.6557,-413.5655" fill="none" stroke="#000000"/>
<polygon fill="#000000" points="520.9497,-410.3035 510.4234,-409.1002 517.9018,-416.6052 520.9497,-410.3035" stroke="#000000"/>
</g>
<!-- Reference genome\n(2BIT) -->
<g class="node" id="node3">
<title>Reference genome\n(2BIT)</title>
<polygon fill="none" points="842,-484 724,-484 720,-480 720,-446 838,-446 842,-450 842,-484" stroke="#000000"/>
<polyline fill="none" points="838,-480 720,-480 " stroke="#000000"/>
<polyline fill="none" points="838,-480 838,-446 " stroke="#000000"/>
<polyline fill="none" points="838,-480 842,-484 " stroke="#000000"/>
<text fill="#000000" font-family="Times,serif" font-size="14.00" text-anchor="middle" x="781" y="-468.8">Reference genome</text>
<text fill="#000000" font-family="Times,serif" font-size="14.00" text-anchor="middle" x="781" y="-453.8">(2BIT)</text>
</g>
<!-- Reference genome\n(2BIT)&#45;&gt;chr_array.py -->
<g class="edge" id="edge19">
<title>Reference genome\n(2BIT)-&gt;chr_array.py</title>
<path d="M719.9523,-448.2836C716.928,-447.5014 713.9312,-446.7362 711,-446 648.4087,-430.2793 576.1321,-413.814 527.8017,-403.0443" fill="none" stroke="#000000"/>
<polygon fill="#000000" points="528.3853,-399.5887 517.8641,-400.835 526.8661,-406.4219 528.3853,-399.5887" stroke="#000000"/>
</g>
<!-- Truth set\n(VCF) -->
<g class="node" id="node4">
<title>Truth set\n(VCF)</title>
<polygon fill="none" points="1085.5,-573 1022.5,-573 1018.5,-569 1018.5,-535 1081.5,-535 1085.5,-539 1085.5,-573" stroke="#000000"/>
<polyline fill="none" points="1081.5,-569 1018.5,-569 " stroke="#000000"/>
<polyline fill="none" points="1081.5,-569 1081.5,-535 " stroke="#000000"/>
<polyline fill="none" points="1081.5,-569 1085.5,-573 " stroke="#000000"/>
<text fill="#000000" font-family="Times,serif" font-size="14.00" text-anchor="middle" x="1052" y="-557.8">Truth set</text>
<text fill="#000000" font-family="Times,serif" font-size="14.00" text-anchor="middle" x="1052" y="-542.8">(VCF)</text>
</g>
<!-- Truth set\n(BEDPE) -->
<g class="node" id="node5">
<title>Truth set\n(BEDPE)</title>
<polygon fill="none" points="1090,-484 1022,-484 1018,-480 1018,-446 1086,-446 1090,-450 1090,-484" stroke="#000000"/>
<polyline fill="none" points="1086,-480 1018,-480 " stroke="#000000"/>
<polyline fill="none" points="1086,-480 1086,-446 " stroke="#000000"/>
<polyline fill="none" points="1086,-480 1090,-484 " stroke="#000000"/>
<text fill="#000000" font-family="Times,serif" font-size="14.00" text-anchor="middle" x="1054" y="-468.8">Truth set</text>
<text fill="#000000" font-family="Times,serif" font-size="14.00" text-anchor="middle" x="1054" y="-453.8">(BEDPE)</text>
</g>
<!-- Truth set\n(VCF)&#45;&gt;Truth set\n(BEDPE) -->
<g class="edge" id="edge1">
<title>Truth set\n(VCF)-&gt;Truth set\n(BEDPE)</title>
<path d="M1052.3347,-534.7373C1052.5141,-524.9352 1052.7495,-512.8324 1053,-502 1053.0585,-499.4705 1053.1227,-496.8437 1053.1894,-494.2096" fill="none" stroke="#000000"/>
<polygon fill="#000000" points="1056.6883,-494.2916 1053.4526,-484.203 1049.6907,-494.1075 1056.6883,-494.2916" stroke="#000000"/>
<text fill="#000000" font-family="Times,serif" font-size="14.00" text-anchor="middle" x="1090" y="-505.8">vcf2bedpe.R</text>
</g>
<!-- Truth set\n(BEDPE)&#45;&gt;label_windows.py -->
<g class="edge" id="edge23">
<title>Truth set\n(BEDPE)-&gt;label_windows.py</title>
<path d="M1029.2125,-445.9432C1019.5906,-437.0225 1008.8223,-426.2657 999.838,-416.6436" fill="none" stroke="#000000"/>
<polygon fill="#000000" points="1002.3968,-414.2552 993.0712,-409.2269 997.2256,-418.9732 1002.3968,-414.2552" stroke="#000000"/>
</g>
<!-- Truth set\n(BEDPE)&#45;&gt;label_windows.py -->
<g class="edge" id="edge26">
<title>Truth set\n(BEDPE)-&gt;label_windows.py</title>
<path d="M1041.1889,-445.9432C1033.1315,-436.9341 1022.5487,-426.0525 1012.4592,-416.3581" fill="none" stroke="#000000"/>
<polygon fill="#000000" points="1014.5685,-413.5367 1004.8899,-409.2269 1009.7684,-418.6317 1014.5685,-413.5367" stroke="#000000"/>
</g>
<!-- clipped_reads\n(JSON.GZ) -->
<g class="node" id="node7">
<title>clipped_reads\n(JSON.GZ)</title>
<polygon fill="none" points="157.5,-484 66.5,-484 62.5,-480 62.5,-446 153.5,-446 157.5,-450 157.5,-484" stroke="#000000"/>
<polyline fill="none" points="153.5,-480 62.5,-480 " stroke="#000000"/>
<polyline fill="none" points="153.5,-480 153.5,-446 " stroke="#000000"/>
<polyline fill="none" points="153.5,-480 157.5,-484 " stroke="#000000"/>
<text fill="#000000" font-family="Times,serif" font-size="14.00" text-anchor="middle" x="110" y="-468.8">clipped_reads</text>
<text fill="#000000" font-family="Times,serif" font-size="14.00" text-anchor="middle" x="110" y="-453.8">(JSON.GZ)</text>
</g>
<!-- clipped_reads.py&#45;&gt;clipped_reads\n(JSON.GZ) -->
<g class="edge" id="edge3">
<title>clipped_reads.py-&gt;clipped_reads\n(JSON.GZ)</title>
<path d="M67.7253,-535.9895C75.0698,-523.6563 84.956,-507.055 93.3213,-493.0076" fill="none" stroke="#000000"/>
<polygon fill="#000000" points="96.4475,-494.5985 98.5569,-484.2158 90.4331,-491.0169 96.4475,-494.5985" stroke="#000000"/>
</g>
<!-- clipped_reads\n(JSON.GZ)&#45;&gt;chr_array.py -->
<g class="edge" id="edge12">
<title>clipped_reads\n(JSON.GZ)-&gt;chr_array.py</title>
<path d="M139.6659,-445.9612C151.9971,-438.9017 166.7402,-431.5214 181,-427 223.9266,-413.3892 346.2498,-401.449 418.2305,-395.3353" fill="none" stroke="#000000"/>
<polygon fill="#000000" points="418.7976,-398.8001 428.4699,-394.4761 418.2122,-391.8246 418.7976,-398.8001" stroke="#000000"/>
</g>
<!-- clipped_read_pos\n(JSON.GZ) -->
<g class="node" id="node9">
<title>clipped_read_pos\n(JSON.GZ)</title>
<polygon fill="none" points="532,-484 418,-484 414,-480 414,-446 528,-446 532,-450 532,-484" stroke="#000000"/>
<polyline fill="none" points="528,-480 414,-480 " stroke="#000000"/>
<polyline fill="none" points="528,-480 528,-446 " stroke="#000000"/>
<polyline fill="none" points="528,-480 532,-484 " stroke="#000000"/>
<text fill="#000000" font-family="Times,serif" font-size="14.00" text-anchor="middle" x="473" y="-468.8">clipped_read_pos</text>
<text fill="#000000" font-family="Times,serif" font-size="14.00" text-anchor="middle" x="473" y="-453.8">(JSON.GZ)</text>
</g>
<!-- clipped_read_pos.py&#45;&gt;clipped_read_pos\n(JSON.GZ) -->
<g class="edge" id="edge5">
<title>clipped_read_pos.py-&gt;clipped_read_pos\n(JSON.GZ)</title>
<path d="M618.1696,-535.9895C590.2126,-522.3182 551.5308,-503.4024 521.1264,-488.5343" fill="none" stroke="#000000"/>
<polygon fill="#000000" points="522.4982,-485.3091 511.9772,-484.0603 519.4231,-491.5975 522.4982,-485.3091" stroke="#000000"/>
</g>
<!-- clipped_read_pos\n(JSON.GZ)&#45;&gt;chr_array.py -->
<g class="edge" id="edge13">
<title>clipped_read_pos\n(JSON.GZ)-&gt;chr_array.py</title>
<path d="M473,-445.9432C473,-437.8174 473,-428.1682 473,-419.2408" fill="none" stroke="#000000"/>
<polygon fill="#000000" points="476.5001,-419.2268 473,-409.2269 469.5001,-419.2269 476.5001,-419.2268" stroke="#000000"/>
</g>
<!-- split_reads\n(JSON.GZ) -->
<g class="node" id="node11">
<title>split_reads\n(JSON.GZ)</title>
<polygon fill="none" points="943.5,-484 864.5,-484 860.5,-480 860.5,-446 939.5,-446 943.5,-450 943.5,-484" stroke="#000000"/>
<polyline fill="none" points="939.5,-480 860.5,-480 " stroke="#000000"/>
<polyline fill="none" points="939.5,-480 939.5,-446 " stroke="#000000"/>
<polyline fill="none" points="939.5,-480 943.5,-484 " stroke="#000000"/>
<text fill="#000000" font-family="Times,serif" font-size="14.00" text-anchor="middle" x="902" y="-468.8">split_reads</text>
<text fill="#000000" font-family="Times,serif" font-size="14.00" text-anchor="middle" x="902" y="-453.8">(JSON.GZ)</text>
</g>
<!-- split_reads.py&#45;&gt;split_reads\n(JSON.GZ) -->
<g class="edge" id="edge7">
<title>split_reads.py-&gt;split_reads\n(JSON.GZ)</title>
<path d="M897.2142,-535.9895C898.0219,-524.0087 899.1011,-508.0001 900.0303,-494.2178" fill="none" stroke="#000000"/>
<polygon fill="#000000" points="903.5239,-494.4286 900.7046,-484.2158 896.5398,-493.9577 903.5239,-494.4286" stroke="#000000"/>
</g>
<!-- split_reads\n(JSON.GZ)&#45;&gt;chr_array.py -->
<g class="edge" id="edge14">
<title>split_reads\n(JSON.GZ)-&gt;chr_array.py</title>
<path d="M860.4812,-448.7134C857.2974,-447.7166 854.1122,-446.7965 851,-446 737.9455,-417.0657 601.7077,-401.9218 527.5783,-395.2812" fill="none" stroke="#000000"/>
<polygon fill="#000000" points="527.8072,-391.788 517.5394,-394.4001 527.1951,-398.7611 527.8072,-391.788" stroke="#000000"/>
</g>
<!-- split_reads\n(JSON.GZ)&#45;&gt;label_windows.py -->
<g class="edge" id="edge22">
<title>split_reads\n(JSON.GZ)-&gt;label_windows.py</title>
<path d="M922.3445,-445.9432C932.0565,-436.8458 943.807,-425.839 954.2325,-416.0733" fill="none" stroke="#000000"/>
<polygon fill="#000000" points="956.636,-418.6176 961.5416,-409.2269 951.8506,-413.5088 956.636,-418.6176" stroke="#000000"/>
</g>
<!-- clipped_read_distance.py -->
<g class="node" id="node12">
<title>clipped_read_distance.py</title>
<polygon fill="none" points="285,-647 123,-647 123,-611 285,-611 285,-647" stroke="#000000"/>
<text fill="#000000" font-family="Times,serif" font-size="14.00" text-anchor="middle" x="204" y="-625.3">clipped_read_distance.py</text>
</g>
<!-- clipped_read_distance.py&#45;&gt;clipped_read_distance\n(JSON.GZ) -->
<g class="edge" id="edge9">
<title>clipped_read_distance.py-&gt;clipped_read_distance\n(JSON.GZ)</title>
<path d="M204,-610.8446C204,-602.529 204,-592.4659 204,-583.1317" fill="none" stroke="#000000"/>
<polygon fill="#000000" points="207.5001,-583.0347 204,-573.0348 200.5001,-583.0348 207.5001,-583.0347" stroke="#000000"/>
</g>
<!-- clipped_read_distance\n(JSON.GZ)&#45;&gt;chr_array.py -->
<g class="edge" id="edge15">
<title>clipped_read_distance\n(JSON.GZ)-&gt;chr_array.py</title>
<path d="M199.6446,-534.9795C195.3947,-511.1053 192.3503,-470.3414 214,-446 240.5517,-416.1472 350.4589,-401.4771 418.2813,-395.135" fill="none" stroke="#000000"/>
<polygon fill="#000000" points="418.732,-398.6087 428.3766,-394.2233 418.1023,-391.6371 418.732,-398.6087" stroke="#000000"/>
</g>
<!-- coverage.py -->
<g class="node" id="node14">
<title>coverage.py</title>
<polygon fill="none" points="380,-572 294,-572 294,-536 380,-536 380,-572" stroke="#000000"/>
<text fill="#000000" font-family="Times,serif" font-size="14.00" text-anchor="middle" x="337" y="-550.3">coverage.py</text>
</g>
<!-- coverage\n(NPY.GZ) -->
<g class="node" id="node15">
<title>coverage\n(NPY.GZ)</title>
<polygon fill="none" points="300.5,-484 227.5,-484 223.5,-480 223.5,-446 296.5,-446 300.5,-450 300.5,-484" stroke="#000000"/>
<polyline fill="none" points="296.5,-480 223.5,-480 " stroke="#000000"/>
<polyline fill="none" points="296.5,-480 296.5,-446 " stroke="#000000"/>
<polyline fill="none" points="296.5,-480 300.5,-484 " stroke="#000000"/>
<text fill="#000000" font-family="Times,serif" font-size="14.00" text-anchor="middle" x="262" y="-468.8">coverage</text>
<text fill="#000000" font-family="Times,serif" font-size="14.00" text-anchor="middle" x="262" y="-453.8">(NPY.GZ)</text>
</g>
<!-- coverage.py&#45;&gt;coverage\n(NPY.GZ) -->
<g class="edge" id="edge10">
<title>coverage.py-&gt;coverage\n(NPY.GZ)</title>
<path d="M321.8226,-535.9895C311.2315,-523.4214 296.9053,-506.421 284.9279,-492.2077" fill="none" stroke="#000000"/>
<polygon fill="#000000" points="287.3135,-489.6073 278.1931,-484.2158 281.9607,-494.1181 287.3135,-489.6073" stroke="#000000"/>
</g>
<!-- coverage\n(NPY.GZ)&#45;&gt;chr_array.py -->
<g class="edge" id="edge16">
<title>coverage\n(NPY.GZ)-&gt;chr_array.py</title>
<path d="M300.6564,-449.1569C303.4725,-448.0692 306.2756,-447.0065 309,-446 345.2512,-432.6079 386.4981,-418.7817 418.5577,-408.342" fill="none" stroke="#000000"/>
<polygon fill="#000000" points="419.7647,-411.6301 428.1966,-405.215 417.6046,-404.9717 419.7647,-411.6301" stroke="#000000"/>
</g>
<!-- snv.py -->
<g class="node" id="node16">
<title>snv.py</title>
<polygon fill="none" points="453.5,-572 398.5,-572 398.5,-536 453.5,-536 453.5,-572" stroke="#000000"/>
<text fill="#000000" font-family="Times,serif" font-size="14.00" text-anchor="middle" x="426" y="-550.3">snv.py</text>
</g>
<!-- snv\n(NPY.GZ) -->
<g class="node" id="node17">
<title>snv\n(NPY.GZ)</title>
<polygon fill="none" points="395.5,-484 322.5,-484 318.5,-480 318.5,-446 391.5,-446 395.5,-450 395.5,-484" stroke="#000000"/>
<polyline fill="none" points="391.5,-480 318.5,-480 " stroke="#000000"/>
<polyline fill="none" points="391.5,-480 391.5,-446 " stroke="#000000"/>
<polyline fill="none" points="391.5,-480 395.5,-484 " stroke="#000000"/>
<text fill="#000000" font-family="Times,serif" font-size="14.00" text-anchor="middle" x="357" y="-468.8">snv</text>
<text fill="#000000" font-family="Times,serif" font-size="14.00" text-anchor="middle" x="357" y="-453.8">(NPY.GZ)</text>
</g>
<!-- snv.py&#45;&gt;snv\n(NPY.GZ) -->
<g class="edge" id="edge11">
<title>snv.py-&gt;snv\n(NPY.GZ)</title>
<path d="M412.0368,-535.9895C402.293,-523.4214 389.1129,-506.421 378.0936,-492.2077" fill="none" stroke="#000000"/>
<polygon fill="#000000" points="380.7909,-489.9744 371.8976,-484.2158 375.2587,-494.2634 380.7909,-489.9744" stroke="#000000"/>
</g>
<!-- snv\n(NPY.GZ)&#45;&gt;chr_array.py -->
<g class="edge" id="edge17">
<title>snv\n(NPY.GZ)-&gt;chr_array.py</title>
<path d="M386.8729,-445.9432C401.8258,-436.4042 420.0698,-424.7658 435.9109,-414.6603" fill="none" stroke="#000000"/>
<polygon fill="#000000" points="437.8799,-417.5558 444.4282,-409.2269 434.1152,-411.6543 437.8799,-417.5558" stroke="#000000"/>
</g>
<!-- chr_array\n(BCOLZ) -->
<g class="node" id="node19">
<title>chr_array\n(BCOLZ)</title>
<polygon fill="none" points="818,-336 748,-336 744,-332 744,-298 814,-298 818,-302 818,-336" stroke="#000000"/>
<polyline fill="none" points="814,-332 744,-332 " stroke="#000000"/>
<polyline fill="none" points="814,-332 814,-298 " stroke="#000000"/>
<polyline fill="none" points="814,-332 818,-336 " stroke="#000000"/>
<text fill="#000000" font-family="Times,serif" font-size="14.00" text-anchor="middle" x="781" y="-320.8">chr_array</text>
<text fill="#000000" font-family="Times,serif" font-size="14.00" text-anchor="middle" x="781" y="-305.8">(BCOLZ)</text>
</g>
<!-- chr_array.py&#45;&gt;chr_array\n(BCOLZ) -->
<g class="edge" id="edge20">
<title>chr_array.py-&gt;chr_array\n(BCOLZ)</title>
<path d="M517.7858,-380.2398C575.5105,-366.3708 675.4141,-342.368 734.1324,-328.2604" fill="none" stroke="#000000"/>
<polygon fill="#000000" points="734.9878,-331.6546 743.8935,-325.9152 733.3525,-324.8482 734.9878,-331.6546" stroke="#000000"/>
</g>
<!-- create_window_pairs.py -->
<g class="node" id="node22">
<title>create_window_pairs.py</title>
<polygon fill="none" points="1059.5,-261 902.5,-261 902.5,-225 1059.5,-225 1059.5,-261" stroke="#000000"/>
<text fill="#000000" font-family="Times,serif" font-size="14.00" text-anchor="middle" x="981" y="-239.3">create_window_pairs.py</text>
</g>
<!-- chr_array\n(BCOLZ)&#45;&gt;create_window_pairs.py -->
<g class="edge" id="edge28">
<title>chr_array\n(BCOLZ)-&gt;create_window_pairs.py</title>
<path d="M818.1497,-303.2546C847.4525,-292.4126 888.8633,-277.0906 922.5924,-264.6108" fill="none" stroke="#000000"/>
<polygon fill="#000000" points="924.1732,-267.7579 932.3372,-261.0052 921.7441,-261.1929 924.1732,-267.7579" stroke="#000000"/>
</g>
<!-- labels\n(JSON.GZ) -->
<g class="node" id="node21">
<title>labels\n(JSON.GZ)</title>
<polygon fill="none" points="1022.5,-336 943.5,-336 939.5,-332 939.5,-298 1018.5,-298 1022.5,-302 1022.5,-336" stroke="#000000"/>
<polyline fill="none" points="1018.5,-332 939.5,-332 " stroke="#000000"/>
<polyline fill="none" points="1018.5,-332 1018.5,-298 " stroke="#000000"/>
<polyline fill="none" points="1018.5,-332 1022.5,-336 " stroke="#000000"/>
<text fill="#000000" font-family="Times,serif" font-size="14.00" text-anchor="middle" x="981" y="-320.8">labels</text>
<text fill="#000000" font-family="Times,serif" font-size="14.00" text-anchor="middle" x="981" y="-305.8">(JSON.GZ)</text>
</g>
<!-- label_windows.py&#45;&gt;labels\n(JSON.GZ) -->
<g class="edge" id="edge24">
<title>label_windows.py-&gt;labels\n(JSON.GZ)</title>
<path d="M981,-372.7079C981,-364.7096 981,-355.1287 981,-346.1859" fill="none" stroke="#000000"/>
<polygon fill="#000000" points="984.5001,-346.1139 981,-336.114 977.5001,-346.114 984.5001,-346.1139" stroke="#000000"/>
</g>
<!-- labels\n(JSON.GZ)&#45;&gt;create_window_pairs.py -->
<g class="edge" id="edge27">
<title>labels\n(JSON.GZ)-&gt;create_window_pairs.py</title>
<path d="M981,-297.9432C981,-289.8174 981,-280.1682 981,-271.2408" fill="none" stroke="#000000"/>
<polygon fill="#000000" points="984.5001,-271.2268 981,-261.2269 977.5001,-271.2269 984.5001,-271.2268" stroke="#000000"/>
</g>
<!-- windows\n(NPZ) -->
<g class="node" id="node26">
<title>windows\n(NPZ)</title>
<polygon fill="none" points="1087.5,-188 1022.5,-188 1018.5,-184 1018.5,-150 1083.5,-150 1087.5,-154 1087.5,-188" stroke="#000000"/>
<polyline fill="none" points="1083.5,-184 1018.5,-184 " stroke="#000000"/>
<polyline fill="none" points="1083.5,-184 1083.5,-150 " stroke="#000000"/>
<polyline fill="none" points="1083.5,-184 1087.5,-188 " stroke="#000000"/>
<text fill="#000000" font-family="Times,serif" font-size="14.00" text-anchor="middle" x="1053" y="-172.8">windows</text>
<text fill="#000000" font-family="Times,serif" font-size="14.00" text-anchor="middle" x="1053" y="-157.8">(NPZ)</text>
</g>
<!-- create_window_pairs.py&#45;&gt;windows\n(NPZ) -->
<g class="edge" id="edge29">
<title>create_window_pairs.py-&gt;windows\n(NPZ)</title>
<path d="M998.7978,-224.7079C1007.4257,-215.8403 1017.9465,-205.0272 1027.4155,-195.2952" fill="none" stroke="#000000"/>
<polygon fill="#000000" points="1029.9376,-197.722 1034.4026,-188.114 1024.9205,-192.8405 1029.9376,-197.722" stroke="#000000"/>
</g>
<!-- windows_en\n(NPZ) -->
<g class="node" id="node27">
<title>windows_en\n(NPZ)</title>
<polygon fill="none" points="1144,-38 1058,-38 1054,-34 1054,0 1140,0 1144,-4 1144,-38" stroke="#000000"/>
<polyline fill="none" points="1140,-34 1054,-34 " stroke="#000000"/>
<polyline fill="none" points="1140,-34 1140,0 " stroke="#000000"/>
<polyline fill="none" points="1140,-34 1144,-38 " stroke="#000000"/>
<text fill="#000000" font-family="Times,serif" font-size="14.00" text-anchor="middle" x="1099" y="-22.8">windows_en</text>
<text fill="#000000" font-family="Times,serif" font-size="14.00" text-anchor="middle" x="1099" y="-7.8">(NPZ)</text>
</g>
<!-- add_win_channels.py&#45;&gt;windows_en\n(NPZ) -->
<g class="edge" id="edge32">
<title>add_win_channels.py-&gt;windows_en\n(NPZ)</title>
<path d="M1099,-75.8446C1099,-67.529 1099,-57.4659 1099,-48.1317" fill="none" stroke="#000000"/>
<polygon fill="#000000" points="1102.5001,-48.0347 1099,-38.0348 1095.5001,-48.0348 1102.5001,-48.0347" stroke="#000000"/>
</g>
<!-- train.py\n -->
<g class="node" id="node24">
<title>train.py\n</title>
<polygon fill="none" points="1384.5,-572 1323.5,-572 1323.5,-536 1384.5,-536 1384.5,-572" stroke="#000000"/>
<text fill="#000000" font-family="Times,serif" font-size="14.00" text-anchor="middle" x="1354" y="-550.3">train.py</text>
</g>
<!-- Model\n(HDF5) -->
<g class="node" id="node30">
<title>Model\n(HDF5)</title>
<polygon fill="none" points="1385,-484 1327,-484 1323,-480 1323,-446 1381,-446 1385,-450 1385,-484" stroke="#000000"/>
<polyline fill="none" points="1381,-480 1323,-480 " stroke="#000000"/>
<polyline fill="none" points="1381,-480 1381,-446 " stroke="#000000"/>
<polyline fill="none" points="1381,-480 1385,-484 " stroke="#000000"/>
<text fill="#000000" font-family="Times,serif" font-size="14.00" text-anchor="middle" x="1354" y="-468.8">Model</text>
<text fill="#000000" font-family="Times,serif" font-size="14.00" text-anchor="middle" x="1354" y="-453.8">(HDF5)</text>
</g>
<!-- train.py\n&#45;&gt;Model\n(HDF5) -->
<g class="edge" id="edge34">
<title>train.py\n-&gt;Model\n(HDF5)</title>
<path d="M1354,-535.9895C1354,-524.0087 1354,-508.0001 1354,-494.2178" fill="none" stroke="#000000"/>
<polygon fill="#000000" points="1357.5001,-494.2158 1354,-484.2158 1350.5001,-494.2158 1357.5001,-494.2158" stroke="#000000"/>
</g>
<!-- predict.py\n -->
<g class="node" id="node25">
<title>predict.py\n</title>
<polygon fill="none" points="1309,-409 1235,-409 1235,-373 1309,-373 1309,-409" stroke="#000000"/>
<text fill="#000000" font-family="Times,serif" font-size="14.00" text-anchor="middle" x="1272" y="-387.3">predict.py</text>
</g>
<!-- SV calls\n(BEDPE) -->
<g class="node" id="node31">
<title>SV calls\n(BEDPE)</title>
<polygon fill="none" points="1308,-336 1240,-336 1236,-332 1236,-298 1304,-298 1308,-302 1308,-336" stroke="#000000"/>
<polyline fill="none" points="1304,-332 1236,-332 " stroke="#000000"/>
<polyline fill="none" points="1304,-332 1304,-298 " stroke="#000000"/>
<polyline fill="none" points="1304,-332 1308,-336 " stroke="#000000"/>
<text fill="#000000" font-family="Times,serif" font-size="14.00" text-anchor="middle" x="1272" y="-320.8">SV calls</text>
<text fill="#000000" font-family="Times,serif" font-size="14.00" text-anchor="middle" x="1272" y="-305.8">(BEDPE)</text>
</g>
<!-- predict.py\n&#45;&gt;SV calls\n(BEDPE) -->
<g class="edge" id="edge37">
<title>predict.py\n-&gt;SV calls\n(BEDPE)</title>
<path d="M1272,-372.7079C1272,-364.7096 1272,-355.1287 1272,-346.1859" fill="none" stroke="#000000"/>
<polygon fill="#000000" points="1275.5001,-346.1139 1272,-336.114 1268.5001,-346.114 1275.5001,-346.1139" stroke="#000000"/>
</g>
<!-- windows\n(NPZ)&#45;&gt;add_win_channels.py -->
<g class="edge" id="edge31">
<title>windows\n(NPZ)-&gt;add_win_channels.py</title>
<path d="M1064.8461,-149.6856C1070.2122,-140.9367 1076.6469,-130.4452 1082.4771,-120.9394" fill="none" stroke="#000000"/>
<polygon fill="#000000" points="1085.5823,-122.571 1087.8271,-112.2167 1079.6152,-118.9112 1085.5823,-122.571" stroke="#000000"/>
</g>
<!-- Training set windows_en\n(NPZ) -->
<g class="node" id="node28">
<title>Training set windows_en\n(NPZ)</title>
<polygon fill="none" points="1434.5,-648 1277.5,-648 1273.5,-644 1273.5,-610 1430.5,-610 1434.5,-614 1434.5,-648" stroke="#000000"/>
<polyline fill="none" points="1430.5,-644 1273.5,-644 " stroke="#000000"/>
<polyline fill="none" points="1430.5,-644 1430.5,-610 " stroke="#000000"/>
<polyline fill="none" points="1430.5,-644 1434.5,-648 " stroke="#000000"/>
<text fill="#000000" font-family="Times,serif" font-size="14.00" text-anchor="middle" x="1354" y="-632.8">Training set windows_en</text>
<text fill="#000000" font-family="Times,serif" font-size="14.00" text-anchor="middle" x="1354" y="-617.8">(NPZ)</text>
</g>
<!-- Training set windows_en\n(NPZ)&#45;&gt;train.py\n -->
<g class="edge" id="edge33">
<title>Training set windows_en\n(NPZ)-&gt;train.py\n</title>
<path d="M1354,-609.6856C1354,-601.3877 1354,-591.5222 1354,-582.4169" fill="none" stroke="#000000"/>
<polygon fill="#000000" points="1357.5001,-582.2167 1354,-572.2167 1350.5001,-582.2168 1357.5001,-582.2167" stroke="#000000"/>
</g>
<!-- Test set windows_en\n(NPZ) -->
<g class="node" id="node29">
<title>Test set windows_en\n(NPZ)</title>
<polygon fill="none" points="1305,-484 1173,-484 1169,-480 1169,-446 1301,-446 1305,-450 1305,-484" stroke="#000000"/>
<polyline fill="none" points="1301,-480 1169,-480 " stroke="#000000"/>
<polyline fill="none" points="1301,-480 1301,-446 " stroke="#000000"/>
<polyline fill="none" points="1301,-480 1305,-484 " stroke="#000000"/>
<text fill="#000000" font-family="Times,serif" font-size="14.00" text-anchor="middle" x="1237" y="-468.8">Test set windows_en</text>
<text fill="#000000" font-family="Times,serif" font-size="14.00" text-anchor="middle" x="1237" y="-453.8">(NPZ)</text>
</g>
<!-- Test set windows_en\n(NPZ)&#45;&gt;predict.py\n -->
<g class="edge" id="edge35">
<title>Test set windows_en\n(NPZ)-&gt;predict.py\n</title>
<path d="M1246.0134,-445.9432C1249.982,-437.5524 1254.7189,-427.5373 1259.0548,-418.3698" fill="none" stroke="#000000"/>
<polygon fill="#000000" points="1262.2675,-419.7632 1263.3792,-409.2269 1255.9396,-416.7703 1262.2675,-419.7632" stroke="#000000"/>
</g>
<!-- Model\n(HDF5)&#45;&gt;predict.py\n -->
<g class="edge" id="edge36">
<title>Model\n(HDF5)-&gt;predict.py\n</title>
<path d="M1332.883,-445.9432C1322.8021,-436.8458 1310.6053,-425.839 1299.784,-416.0733" fill="none" stroke="#000000"/>
<polygon fill="#000000" points="1301.9662,-413.3282 1292.1973,-409.2269 1297.2764,-418.5249 1301.9662,-413.3282" stroke="#000000"/>
</g>
<!-- merge_sv_calls.R -->
<g class="node" id="node32">
<title>merge_sv_calls.R</title>
<polygon fill="none" points="1331,-261 1213,-261 1213,-225 1331,-225 1331,-261" stroke="#000000"/>
<text fill="#000000" font-family="Times,serif" font-size="14.00" text-anchor="middle" x="1272" y="-239.3">merge_sv_calls.R</text>
</g>
<!-- SV calls\n(BEDPE)&#45;&gt;merge_sv_calls.R -->
<g class="edge" id="edge38">
<title>SV calls\n(BEDPE)-&gt;merge_sv_calls.R</title>
<path d="M1272,-297.9432C1272,-289.8174 1272,-280.1682 1272,-271.2408" fill="none" stroke="#000000"/>
<polygon fill="#000000" points="1275.5001,-271.2268 1272,-261.2269 1268.5001,-271.2269 1275.5001,-271.2268" stroke="#000000"/>
</g>
<!-- bedpe_to_vcf.py -->
<g class="node" id="node33">
<title>bedpe_to_vcf.py</title>
<polygon fill="none" points="1329,-187 1215,-187 1215,-151 1329,-151 1329,-187" stroke="#000000"/>
<text fill="#000000" font-family="Times,serif" font-size="14.00" text-anchor="middle" x="1272" y="-165.3">bedpe_to_vcf.py</text>
</g>
<!-- merge_sv_calls.R&#45;&gt;bedpe_to_vcf.py -->
<g class="edge" id="edge39">
<title>merge_sv_calls.R-&gt;bedpe_to_vcf.py</title>
<path d="M1272,-224.7079C1272,-216.4635 1272,-206.5376 1272,-197.3622" fill="none" stroke="#000000"/>
<polygon fill="#000000" points="1275.5001,-197.0817 1272,-187.0817 1268.5001,-197.0818 1275.5001,-197.0817" stroke="#000000"/>
</g>
<!-- SV calls\n(VCF) -->
<g class="node" id="node34">
<title>SV calls\n(VCF)</title>
<polygon fill="none" points="1304,-113 1244,-113 1240,-109 1240,-75 1300,-75 1304,-79 1304,-113" stroke="#000000"/>
<polyline fill="none" points="1300,-109 1240,-109 " stroke="#000000"/>
<polyline fill="none" points="1300,-109 1300,-75 " stroke="#000000"/>
<polyline fill="none" points="1300,-109 1304,-113 " stroke="#000000"/>
<text fill="#000000" font-family="Times,serif" font-size="14.00" text-anchor="middle" x="1272" y="-97.8">SV calls</text>
<text fill="#000000" font-family="Times,serif" font-size="14.00" text-anchor="middle" x="1272" y="-82.8">(VCF)</text>
</g>
<!-- bedpe_to_vcf.py&#45;&gt;SV calls\n(VCF) -->
<g class="edge" id="edge40">
<title>bedpe_to_vcf.py-&gt;SV calls\n(VCF)</title>
<path d="M1272,-150.8446C1272,-142.529 1272,-132.4659 1272,-123.1317" fill="none" stroke="#000000"/>
<polygon fill="#000000" points="1275.5001,-123.0347 1272,-113.0348 1268.5001,-123.0348 1275.5001,-123.0347" stroke="#000000"/>
</g>
</g>
</svg>