<?xml version="1.0" encoding="UTF-8" standalone="no"?>
<!DOCTYPE svg PUBLIC "-//W3C//DTD SVG 1.1//EN"
 "http://www.w3.org/Graphics/SVG/1.1/DTD/svg11.dtd">
<!-- Generated by graphviz version 2.40.1 (20161225.0304)
 -->
<!-- Title: G Pages: 1 -->
<svg width="1444pt" height="949pt"
 viewBox="0.00 0.00 1444.14 949.20" xmlns="http://www.w3.org/2000/svg" xmlns:xlink="http://www.w3.org/1999/xlink">
<g id="graph0" class="graph" transform="scale(1 1) rotate(0) translate(4 945.2)">
<title>G</title>
<polygon fill="#ffffff" stroke="transparent" points="-4,4 -4,-945.2 1440.141,-945.2 1440.141,4 -4,4"/>
<!-- by chromosome -->
<g id="node1" class="node">
<title>by chromosome</title>
<ellipse fill="none" stroke="#000000" cx="457" cy="-833.4" rx="72.9793" ry="18"/>
<text text-anchor="middle" x="457" y="-829.2" font-family="Times,serif" font-size="14.00" fill="#000000">by chromosome</text>
</g>
<!-- clipped_read_distance.py -->
<g id="node15" class="node">
<title>clipped_read_distance.py</title>
<polygon fill="none" stroke="#000000" points="318.1701,-740.2 159.8299,-740.2 159.8299,-704.2 318.1701,-704.2 318.1701,-740.2"/>
<text text-anchor="middle" x="239" y="-718" font-family="Times,serif" font-size="14.00" fill="#000000">clipped_read_distance.py</text>
</g>
<!-- by chromosome&#45;&gt;clipped_read_distance.py -->
<g id="edge10" class="edge">
<title>by chromosome&#45;&gt;clipped_read_distance.py</title>
<path fill="none" stroke="#000000" d="M424.8333,-816.9921C387.5059,-797.9516 325.7189,-766.4346 283.7285,-745.0156"/>
<polygon fill="#000000" stroke="#000000" points="285.0585,-741.765 274.5601,-740.3389 281.8777,-748.0007 285.0585,-741.765"/>
</g>
<!-- coverage.py -->
<g id="node17" class="node">
<title>coverage.py</title>
<polygon fill="none" stroke="#000000" points="420.019,-740.2 335.981,-740.2 335.981,-704.2 420.019,-704.2 420.019,-740.2"/>
<text text-anchor="middle" x="378" y="-718" font-family="Times,serif" font-size="14.00" fill="#000000">coverage.py</text>
</g>
<!-- by chromosome&#45;&gt;coverage.py -->
<g id="edge12" class="edge">
<title>by chromosome&#45;&gt;coverage.py</title>
<path fill="none" stroke="#000000" d="M444.3073,-815.5338C431.4841,-797.484 411.5243,-769.3886 396.8519,-748.7358"/>
<polygon fill="#000000" stroke="#000000" points="399.5685,-746.5164 390.9237,-740.3913 393.862,-750.5705 399.5685,-746.5164"/>
</g>
<!-- snv.py -->
<g id="node19" class="node">
<title>snv.py</title>
<polygon fill="none" stroke="#000000" points="492,-740.2 438,-740.2 438,-704.2 492,-704.2 492,-740.2"/>
<text text-anchor="middle" x="465" y="-718" font-family="Times,serif" font-size="14.00" fill="#000000">snv.py</text>
</g>
<!-- by chromosome&#45;&gt;snv.py -->
<g id="edge14" class="edge">
<title>by chromosome&#45;&gt;snv.py</title>
<path fill="none" stroke="#000000" d="M458.321,-815.0376C459.585,-797.4683 461.5095,-770.7179 462.9685,-750.4375"/>
<polygon fill="#000000" stroke="#000000" points="466.4769,-750.4461 463.7035,-740.2207 459.4949,-749.9438 466.4769,-750.4461"/>
</g>
<!-- chr_array.py -->
<g id="node21" class="node">
<title>chr_array.py</title>
<polygon fill="none" stroke="#000000" points="533.6257,-536.8 446.3743,-536.8 446.3743,-500.8 533.6257,-500.8 533.6257,-536.8"/>
<text text-anchor="middle" x="490" y="-514.6" font-family="Times,serif" font-size="14.00" fill="#000000">chr_array.py</text>
</g>
<!-- by chromosome&#45;&gt;chr_array.py -->
<g id="edge16" class="edge">
<title>by chromosome&#45;&gt;chr_array.py</title>
<path fill="none" stroke="#000000" d="M469.9212,-815.5881C480.6246,-799.6591 495.0139,-775.2165 501,-751.4 519.0713,-679.5012 505.6083,-591.2556 496.5159,-546.9757"/>
<polygon fill="#000000" stroke="#000000" points="499.887,-546.002 494.3761,-536.9532 493.0413,-547.4636 499.887,-546.002"/>
</g>
<!-- Read alignment\n(BAM) -->
<g id="node2" class="node">
<title>Read alignment\n(BAM)</title>
<polygon fill="none" stroke="#000000" points="595.2577,-941.0019 494.7423,-941.0019 490.7423,-937.0019 490.7423,-899.7981 591.2577,-899.7981 595.2577,-903.7981 595.2577,-941.0019"/>
<polyline fill="none" stroke="#000000" points="591.2577,-937.0019 490.7423,-937.0019 "/>
<polyline fill="none" stroke="#000000" points="591.2577,-937.0019 591.2577,-899.7981 "/>
<polyline fill="none" stroke="#000000" points="591.2577,-937.0019 595.2577,-941.0019 "/>
<text text-anchor="middle" x="543" y="-924.6" font-family="Times,serif" font-size="14.00" fill="#000000">Read alignment</text>
<text text-anchor="middle" x="543" y="-907.8" font-family="Times,serif" font-size="14.00" fill="#000000">(BAM)</text>
</g>
<!-- Read alignment\n(BAM)&#45;&gt;by chromosome -->
<g id="edge1" class="edge">
<title>Read alignment\n(BAM)&#45;&gt;by chromosome</title>
<path fill="none" stroke="#000000" d="M522.6192,-899.7822C510.3288,-887.3489 494.592,-871.4291 481.6104,-858.2965"/>
<polygon fill="#000000" stroke="#000000" points="483.8515,-855.5851 474.3322,-850.9338 478.8732,-860.5062 483.8515,-855.5851"/>
</g>
<!-- clipped_reads.py -->
<g id="node9" class="node">
<title>clipped_reads.py</title>
<polygon fill="none" stroke="#000000" points="171.7451,-851.4 60.2549,-851.4 60.2549,-815.4 171.7451,-815.4 171.7451,-851.4"/>
<text text-anchor="middle" x="116" y="-829.2" font-family="Times,serif" font-size="14.00" fill="#000000">clipped_reads.py</text>
</g>
<!-- Read alignment\n(BAM)&#45;&gt;clipped_reads.py -->
<g id="edge4" class="edge">
<title>Read alignment\n(BAM)&#45;&gt;clipped_reads.py</title>
<path fill="none" stroke="#000000" d="M490.6608,-913.4532C424.7091,-904.2116 308.1144,-886.2491 210,-862.6 200.0543,-860.2027 189.6196,-857.3298 179.4685,-854.3347"/>
<polygon fill="#000000" stroke="#000000" points="180.4327,-850.9699 169.8482,-851.4373 178.414,-857.6725 180.4327,-850.9699"/>
</g>
<!-- clipped_read_pos.py -->
<g id="node11" class="node">
<title>clipped_read_pos.py</title>
<polygon fill="none" stroke="#000000" points="351.245,-851.4 218.755,-851.4 218.755,-815.4 351.245,-815.4 351.245,-851.4"/>
<text text-anchor="middle" x="285" y="-829.2" font-family="Times,serif" font-size="14.00" fill="#000000">clipped_read_pos.py</text>
</g>
<!-- Read alignment\n(BAM)&#45;&gt;clipped_read_pos.py -->
<g id="edge6" class="edge">
<title>Read alignment\n(BAM)&#45;&gt;clipped_read_pos.py</title>
<path fill="none" stroke="#000000" d="M490.7899,-902.7943C449.586,-888.8999 391.9485,-869.464 348.1497,-854.6947"/>
<polygon fill="#000000" stroke="#000000" points="349.0568,-851.307 338.4627,-851.4281 346.82,-857.94 349.0568,-851.307"/>
</g>
<!-- split_reads.py -->
<g id="node13" class="node">
<title>split_reads.py</title>
<polygon fill="none" stroke="#000000" points="642.1509,-851.4 547.8491,-851.4 547.8491,-815.4 642.1509,-815.4 642.1509,-851.4"/>
<text text-anchor="middle" x="595" y="-829.2" font-family="Times,serif" font-size="14.00" fill="#000000">split_reads.py</text>
</g>
<!-- Read alignment\n(BAM)&#45;&gt;split_reads.py -->
<g id="edge8" class="edge">
<title>Read alignment\n(BAM)&#45;&gt;split_reads.py</title>
<path fill="none" stroke="#000000" d="M555.3233,-899.7822C562.3802,-887.9755 571.3163,-873.0247 578.9205,-860.3023"/>
<polygon fill="#000000" stroke="#000000" points="582.05,-861.8883 584.1762,-851.509 576.0415,-858.297 582.05,-861.8883"/>
</g>
<!-- label_window_pairs_on_split_read_positions.py -->
<g id="node23" class="node">
<title>label_window_pairs_on_split_read_positions.py</title>
<polygon fill="none" stroke="#000000" points="1130.7919,-612.6 843.2081,-612.6 843.2081,-576.6 1130.7919,-576.6 1130.7919,-612.6"/>
<text text-anchor="middle" x="987" y="-590.4" font-family="Times,serif" font-size="14.00" fill="#000000">label_window_pairs_on_split_read_positions.py</text>
</g>
<!-- Read alignment\n(BAM)&#45;&gt;label_window_pairs_on_split_read_positions.py -->
<g id="edge26" class="edge">
<title>Read alignment\n(BAM)&#45;&gt;label_window_pairs_on_split_read_positions.py</title>
<path fill="none" stroke="#000000" d="M585.8251,-899.754C606.0828,-889.4203 630.3082,-876.226 651,-862.6 772.1693,-782.8073 903.1065,-669.6212 959.0745,-619.798"/>
<polygon fill="#000000" stroke="#000000" points="961.6507,-622.1898 966.778,-612.9183 956.988,-616.9688 961.6507,-622.1898"/>
</g>
<!-- label_window_pairs_on_svcallset.py -->
<g id="node25" class="node">
<title>label_window_pairs_on_svcallset.py</title>
<polygon fill="none" stroke="#000000" points="1412.7295,-612.6 1189.2705,-612.6 1189.2705,-576.6 1412.7295,-576.6 1412.7295,-612.6"/>
<text text-anchor="middle" x="1301" y="-590.4" font-family="Times,serif" font-size="14.00" fill="#000000">label_window_pairs_on_svcallset.py</text>
</g>
<!-- Read alignment\n(BAM)&#45;&gt;label_window_pairs_on_svcallset.py -->
<g id="edge30" class="edge">
<title>Read alignment\n(BAM)&#45;&gt;label_window_pairs_on_svcallset.py</title>
<path fill="none" stroke="#000000" d="M595.2911,-919.6697C751.8108,-917.0076 1208.8985,-905.5914 1259,-862.6 1328.8402,-802.671 1316.5322,-678.084 1306.7931,-622.4634"/>
<polygon fill="#000000" stroke="#000000" points="1310.2295,-621.7986 1304.9647,-612.6044 1303.3469,-623.075 1310.2295,-621.7986"/>
</g>
<!-- create_window_pairs.py\nsplit_reads -->
<g id="node26" class="node">
<title>create_window_pairs.py\nsplit_reads</title>
<polygon fill="none" stroke="#000000" points="600.724,-327.6019 447.276,-327.6019 447.276,-286.3981 600.724,-286.3981 600.724,-327.6019"/>
<text text-anchor="middle" x="524" y="-311.2" font-family="Times,serif" font-size="14.00" fill="#000000">create_window_pairs.py</text>
<text text-anchor="middle" x="524" y="-294.4" font-family="Times,serif" font-size="14.00" fill="#000000">split_reads</text>
</g>
<!-- Read alignment\n(BAM)&#45;&gt;create_window_pairs.py\nsplit_reads -->
<g id="edge34" class="edge">
<title>Read alignment\n(BAM)&#45;&gt;create_window_pairs.py\nsplit_reads</title>
<path fill="none" stroke="#000000" d="M490.4415,-917.4583C354.1693,-909.1327 0,-882.7477 0,-833.4 0,-833.4 0,-833.4 0,-385.6 0,-341.9308 288.298,-319.7998 437.2063,-311.2815"/>
<polygon fill="#000000" stroke="#000000" points="437.4575,-314.773 447.2447,-310.7158 437.0636,-307.7841 437.4575,-314.773"/>
</g>
<!-- create_window_pairs.py\nSV_callset -->
<g id="node27" class="node">
<title>create_window_pairs.py\nSV_callset</title>
<polygon fill="none" stroke="#000000" points="1235.724,-327.6019 1082.276,-327.6019 1082.276,-286.3981 1235.724,-286.3981 1235.724,-327.6019"/>
<text text-anchor="middle" x="1159" y="-311.2" font-family="Times,serif" font-size="14.00" fill="#000000">create_window_pairs.py</text>
<text text-anchor="middle" x="1159" y="-294.4" font-family="Times,serif" font-size="14.00" fill="#000000">SV_callset</text>
</g>
<!-- Read alignment\n(BAM)&#45;&gt;create_window_pairs.py\nSV_callset -->
<g id="edge35" class="edge">
<title>Read alignment\n(BAM)&#45;&gt;create_window_pairs.py\nSV_callset</title>
<path fill="none" stroke="#000000" d="M595.2541,-914.5946C743.9922,-894.8945 1159,-816.522 1159,-555.3 1159,-555.3 1159,-555.3 1159,-385.6 1159,-369.9414 1159,-352.5281 1159,-338.0793"/>
<polygon fill="#000000" stroke="#000000" points="1162.5001,-337.6862 1159,-327.6862 1155.5001,-337.6863 1162.5001,-337.6862"/>
</g>
<!-- GEM mappability track\n(BigWig) -->
<g id="node3" class="node">
<title>GEM mappability track\n(BigWig)</title>
<polygon fill="none" stroke="#000000" points="734.4664,-615.2019 589.5336,-615.2019 585.5336,-611.2019 585.5336,-573.9981 730.4664,-573.9981 734.4664,-577.9981 734.4664,-615.2019"/>
<polyline fill="none" stroke="#000000" points="730.4664,-611.2019 585.5336,-611.2019 "/>
<polyline fill="none" stroke="#000000" points="730.4664,-611.2019 730.4664,-573.9981 "/>
<polyline fill="none" stroke="#000000" points="730.4664,-611.2019 734.4664,-615.2019 "/>
<text text-anchor="middle" x="660" y="-598.8" font-family="Times,serif" font-size="14.00" fill="#000000">GEM mappability track</text>
<text text-anchor="middle" x="660" y="-582" font-family="Times,serif" font-size="14.00" fill="#000000">(BigWig)</text>
</g>
<!-- GEM mappability track\n(BigWig)&#45;&gt;chr_array.py -->
<g id="edge23" class="edge">
<title>GEM mappability track\n(BigWig)&#45;&gt;chr_array.py</title>
<path fill="none" stroke="#000000" d="M614.3694,-573.8471C600.7528,-567.6854 585.7842,-560.9427 572,-554.8 561.8882,-550.2939 551.0578,-545.5094 540.6908,-540.95"/>
<polygon fill="#000000" stroke="#000000" points="541.8975,-537.6574 531.3342,-536.8406 539.0826,-544.0665 541.8975,-537.6574"/>
</g>
<!-- Reference\n(2BIT) -->
<g id="node4" class="node">
<title>Reference\n(2BIT)</title>
<polygon fill="none" stroke="#000000" points="825.2313,-615.2019 756.7687,-615.2019 752.7687,-611.2019 752.7687,-573.9981 821.2313,-573.9981 825.2313,-577.9981 825.2313,-615.2019"/>
<polyline fill="none" stroke="#000000" points="821.2313,-611.2019 752.7687,-611.2019 "/>
<polyline fill="none" stroke="#000000" points="821.2313,-611.2019 821.2313,-573.9981 "/>
<polyline fill="none" stroke="#000000" points="821.2313,-611.2019 825.2313,-615.2019 "/>
<text text-anchor="middle" x="789" y="-598.8" font-family="Times,serif" font-size="14.00" fill="#000000">Reference</text>
<text text-anchor="middle" x="789" y="-582" font-family="Times,serif" font-size="14.00" fill="#000000">(2BIT)</text>
</g>
<!-- Reference\n(2BIT)&#45;&gt;chr_array.py -->
<g id="edge24" class="edge">
<title>Reference\n(2BIT)&#45;&gt;chr_array.py</title>
<path fill="none" stroke="#000000" d="M752.6189,-577.3136C749.3991,-576.0392 746.1621,-574.8457 743,-573.8 675.7842,-551.5731 595.5114,-535.8775 543.69,-527.0898"/>
<polygon fill="#000000" stroke="#000000" points="544.1573,-523.6194 533.7174,-525.4244 543.0043,-530.5238 544.1573,-523.6194"/>
</g>
<!-- SV caller\ncallset\n(VCF) -->
<g id="node5" class="node">
<title>SV caller\ncallset\n(VCF)</title>
<polygon fill="none" stroke="#000000" points="1399.4765,-862.8014 1334.5235,-862.8014 1330.5235,-858.8014 1330.5235,-803.9986 1395.4765,-803.9986 1399.4765,-807.9986 1399.4765,-862.8014"/>
<polyline fill="none" stroke="#000000" points="1395.4765,-858.8014 1330.5235,-858.8014 "/>
<polyline fill="none" stroke="#000000" points="1395.4765,-858.8014 1395.4765,-803.9986 "/>
<polyline fill="none" stroke="#000000" points="1395.4765,-858.8014 1399.4765,-862.8014 "/>
<text text-anchor="middle" x="1365" y="-846" font-family="Times,serif" font-size="14.00" fill="#000000">SV caller</text>
<text text-anchor="middle" x="1365" y="-829.2" font-family="Times,serif" font-size="14.00" fill="#000000">callset</text>
<text text-anchor="middle" x="1365" y="-812.4" font-family="Times,serif" font-size="14.00" fill="#000000">(VCF)</text>
</g>
<!-- SV caller\ncallset\n(BEDPE) -->
<g id="node6" class="node">
<title>SV caller\ncallset\n(BEDPE)</title>
<polygon fill="none" stroke="#000000" points="1399.6531,-751.6014 1334.3469,-751.6014 1330.3469,-747.6014 1330.3469,-692.7986 1395.6531,-692.7986 1399.6531,-696.7986 1399.6531,-751.6014"/>
<polyline fill="none" stroke="#000000" points="1395.6531,-747.6014 1330.3469,-747.6014 "/>
<polyline fill="none" stroke="#000000" points="1395.6531,-747.6014 1395.6531,-692.7986 "/>
<polyline fill="none" stroke="#000000" points="1395.6531,-747.6014 1399.6531,-751.6014 "/>
<text text-anchor="middle" x="1365" y="-734.8" font-family="Times,serif" font-size="14.00" fill="#000000">SV caller</text>
<text text-anchor="middle" x="1365" y="-718" font-family="Times,serif" font-size="14.00" fill="#000000">callset</text>
<text text-anchor="middle" x="1365" y="-701.2" font-family="Times,serif" font-size="14.00" fill="#000000">(BEDPE)</text>
</g>
<!-- SV caller\ncallset\n(VCF)&#45;&gt;SV caller\ncallset\n(BEDPE) -->
<g id="edge2" class="edge">
<title>SV caller\ncallset\n(VCF)&#45;&gt;SV caller\ncallset\n(BEDPE)</title>
<path fill="none" stroke="#000000" d="M1365,-804.1835C1365,-791.2614 1365,-775.8642 1365,-761.9212"/>
<polygon fill="#000000" stroke="#000000" points="1368.5001,-761.6074 1365,-751.6074 1361.5001,-761.6075 1368.5001,-761.6074"/>
<text text-anchor="middle" x="1400.5705" y="-773.6" font-family="Times,serif" font-size="14.00" fill="#000000">vcf2bedpe.R</text>
</g>
<!-- SV caller\ncallset\n(BEDPE)&#45;&gt;label_window_pairs_on_svcallset.py -->
<g id="edge31" class="edge">
<title>SV caller\ncallset\n(BEDPE)&#45;&gt;label_window_pairs_on_svcallset.py</title>
<path fill="none" stroke="#000000" d="M1350.3171,-692.926C1339.5641,-671.4872 1325.0779,-642.6053 1314.5901,-621.6952"/>
<polygon fill="#000000" stroke="#000000" points="1317.6924,-620.0737 1310.0805,-612.7042 1311.4353,-623.212 1317.6924,-620.0737"/>
</g>
<!-- Truth set\n(VCF) -->
<g id="node7" class="node">
<title>Truth set\n(VCF)</title>
<polygon fill="none" stroke="#000000" points="1250.1538,-854.0019 1187.8462,-854.0019 1183.8462,-850.0019 1183.8462,-812.7981 1246.1538,-812.7981 1250.1538,-816.7981 1250.1538,-854.0019"/>
<polyline fill="none" stroke="#000000" points="1246.1538,-850.0019 1183.8462,-850.0019 "/>
<polyline fill="none" stroke="#000000" points="1246.1538,-850.0019 1246.1538,-812.7981 "/>
<polyline fill="none" stroke="#000000" points="1246.1538,-850.0019 1250.1538,-854.0019 "/>
<text text-anchor="middle" x="1217" y="-837.6" font-family="Times,serif" font-size="14.00" fill="#000000">Truth set</text>
<text text-anchor="middle" x="1217" y="-820.8" font-family="Times,serif" font-size="14.00" fill="#000000">(VCF)</text>
</g>
<!-- Truth set\n(BEDPE) -->
<g id="node8" class="node">
<title>Truth set\n(BEDPE)</title>
<polygon fill="none" stroke="#000000" points="1253.6531,-742.8019 1188.3469,-742.8019 1184.3469,-738.8019 1184.3469,-701.5981 1249.6531,-701.5981 1253.6531,-705.5981 1253.6531,-742.8019"/>
<polyline fill="none" stroke="#000000" points="1249.6531,-738.8019 1184.3469,-738.8019 "/>
<polyline fill="none" stroke="#000000" points="1249.6531,-738.8019 1249.6531,-701.5981 "/>
<polyline fill="none" stroke="#000000" points="1249.6531,-738.8019 1253.6531,-742.8019 "/>
<text text-anchor="middle" x="1219" y="-726.4" font-family="Times,serif" font-size="14.00" fill="#000000">Truth set</text>
<text text-anchor="middle" x="1219" y="-709.6" font-family="Times,serif" font-size="14.00" fill="#000000">(BEDPE)</text>
</g>
<!-- Truth set\n(VCF)&#45;&gt;Truth set\n(BEDPE) -->
<g id="edge3" class="edge">
<title>Truth set\n(VCF)&#45;&gt;Truth set\n(BEDPE)</title>
<path fill="none" stroke="#000000" d="M1216.6933,-812.6447C1216.5731,-800.119 1216.5317,-783.8408 1216.859,-769.4 1216.9791,-764.1028 1217.1749,-758.4738 1217.4005,-753.0177"/>
<polygon fill="#000000" stroke="#000000" points="1220.9039,-753.019 1217.8592,-742.8711 1213.9111,-752.7029 1220.9039,-753.019"/>
<text text-anchor="middle" x="1251.5705" y="-773.6" font-family="Times,serif" font-size="14.00" fill="#000000">vcf2bedpe.R</text>
</g>
<!-- Truth set\n(BEDPE)&#45;&gt;label_window_pairs_on_split_read_positions.py -->
<g id="edge28" class="edge">
<title>Truth set\n(BEDPE)&#45;&gt;label_window_pairs_on_split_read_positions.py</title>
<path fill="none" stroke="#000000" d="M1184.2673,-703.097C1142.7582,-680.267 1073.349,-642.092 1028.9023,-617.6463"/>
<polygon fill="#000000" stroke="#000000" points="1030.5377,-614.5513 1020.0888,-612.7988 1027.1642,-620.6848 1030.5377,-614.5513"/>
</g>
<!-- Truth set\n(BEDPE)&#45;&gt;label_window_pairs_on_svcallset.py -->
<g id="edge32" class="edge">
<title>Truth set\n(BEDPE)&#45;&gt;label_window_pairs_on_svcallset.py</title>
<path fill="none" stroke="#000000" d="M1232.3572,-701.4149C1246.3612,-679.6234 1268.4186,-645.2998 1283.7352,-621.4657"/>
<polygon fill="#000000" stroke="#000000" points="1286.7827,-623.1974 1289.2446,-612.8926 1280.8939,-619.413 1286.7827,-623.1974"/>
</g>
<!-- clipped_reads\n(JSON.GZ) -->
<g id="node10" class="node">
<title>clipped_reads\n(JSON.GZ)</title>
<polygon fill="none" stroke="#000000" points="108.7451,-674.8019 19.2549,-674.8019 15.2549,-670.8019 15.2549,-633.5981 104.7451,-633.5981 108.7451,-637.5981 108.7451,-674.8019"/>
<polyline fill="none" stroke="#000000" points="104.7451,-670.8019 15.2549,-670.8019 "/>
<polyline fill="none" stroke="#000000" points="104.7451,-670.8019 104.7451,-633.5981 "/>
<polyline fill="none" stroke="#000000" points="104.7451,-670.8019 108.7451,-674.8019 "/>
<text text-anchor="middle" x="62" y="-658.4" font-family="Times,serif" font-size="14.00" fill="#000000">clipped_reads</text>
<text text-anchor="middle" x="62" y="-641.6" font-family="Times,serif" font-size="14.00" fill="#000000">(JSON.GZ)</text>
</g>
<!-- clipped_reads.py&#45;&gt;clipped_reads\n(JSON.GZ) -->
<g id="edge5" class="edge">
<title>clipped_reads.py&#45;&gt;clipped_reads\n(JSON.GZ)</title>
<path fill="none" stroke="#000000" d="M110.525,-815.2312C101.2851,-784.5685 82.5014,-722.2343 71.2064,-684.7517"/>
<polygon fill="#000000" stroke="#000000" points="74.4699,-683.4506 68.2334,-674.8857 67.7676,-685.4703 74.4699,-683.4506"/>
</g>
<!-- clipped_reads\n(JSON.GZ)&#45;&gt;chr_array.py -->
<g id="edge17" class="edge">
<title>clipped_reads\n(JSON.GZ)&#45;&gt;chr_array.py</title>
<path fill="none" stroke="#000000" d="M71.5211,-633.4522C80.8941,-615.2301 96.8665,-589.2795 118,-573.8 167.5728,-537.4898 345.3862,-524.8405 436.0365,-520.6882"/>
<polygon fill="#000000" stroke="#000000" points="436.28,-524.181 446.1167,-520.2452 435.9726,-517.1878 436.28,-524.181"/>
</g>
<!-- clipped_read_pos\n(JSON.GZ) -->
<g id="node12" class="node">
<title>clipped_read_pos\n(JSON.GZ)</title>
<polygon fill="none" stroke="#000000" points="228.2451,-674.8019 117.7549,-674.8019 113.7549,-670.8019 113.7549,-633.5981 224.2451,-633.5981 228.2451,-637.5981 228.2451,-674.8019"/>
<polyline fill="none" stroke="#000000" points="224.2451,-670.8019 113.7549,-670.8019 "/>
<polyline fill="none" stroke="#000000" points="224.2451,-670.8019 224.2451,-633.5981 "/>
<polyline fill="none" stroke="#000000" points="224.2451,-670.8019 228.2451,-674.8019 "/>
<text text-anchor="middle" x="171" y="-658.4" font-family="Times,serif" font-size="14.00" fill="#000000">clipped_read_pos</text>
<text text-anchor="middle" x="171" y="-641.6" font-family="Times,serif" font-size="14.00" fill="#000000">(JSON.GZ)</text>
</g>
<!-- clipped_read_pos.py&#45;&gt;clipped_read_pos\n(JSON.GZ) -->
<g id="edge7" class="edge">
<title>clipped_read_pos.py&#45;&gt;clipped_read_pos\n(JSON.GZ)</title>
<path fill="none" stroke="#000000" d="M231.1432,-815.3913C201.8297,-802.5142 168.1344,-781.9732 151,-751.4 138.3105,-728.7579 144.8815,-718.2241 151,-693 151.7269,-690.0035 152.7279,-686.9793 153.8976,-684.012"/>
<polygon fill="#000000" stroke="#000000" points="157.1193,-685.3825 158.0791,-674.8312 150.7489,-682.481 157.1193,-685.3825"/>
</g>
<!-- clipped_read_pos\n(JSON.GZ)&#45;&gt;chr_array.py -->
<g id="edge18" class="edge">
<title>clipped_read_pos\n(JSON.GZ)&#45;&gt;chr_array.py</title>
<path fill="none" stroke="#000000" d="M141.9647,-633.4561C136.6967,-628.2109 131.9449,-622.1298 129,-615.4 121.5879,-598.4619 116.9511,-587.8237 129,-573.8 148.7567,-550.8053 340.5324,-531.4674 436.2359,-523.1593"/>
<polygon fill="#000000" stroke="#000000" points="436.6377,-526.6378 446.3017,-522.2955 436.0391,-519.6634 436.6377,-526.6378"/>
</g>
<!-- split_reads\n(JSON.GZ) -->
<g id="node14" class="node">
<title>split_reads\n(JSON.GZ)</title>
<polygon fill="none" stroke="#000000" points="635.4208,-742.8019 558.5792,-742.8019 554.5792,-738.8019 554.5792,-701.5981 631.4208,-701.5981 635.4208,-705.5981 635.4208,-742.8019"/>
<polyline fill="none" stroke="#000000" points="631.4208,-738.8019 554.5792,-738.8019 "/>
<polyline fill="none" stroke="#000000" points="631.4208,-738.8019 631.4208,-701.5981 "/>
<polyline fill="none" stroke="#000000" points="631.4208,-738.8019 635.4208,-742.8019 "/>
<text text-anchor="middle" x="595" y="-726.4" font-family="Times,serif" font-size="14.00" fill="#000000">split_reads</text>
<text text-anchor="middle" x="595" y="-709.6" font-family="Times,serif" font-size="14.00" fill="#000000">(JSON.GZ)</text>
</g>
<!-- split_reads.py&#45;&gt;split_reads\n(JSON.GZ) -->
<g id="edge9" class="edge">
<title>split_reads.py&#45;&gt;split_reads\n(JSON.GZ)</title>
<path fill="none" stroke="#000000" d="M595,-815.0376C595,-798.2003 595,-772.9311 595,-753.0051"/>
<polygon fill="#000000" stroke="#000000" points="598.5001,-752.8593 595,-742.8593 591.5001,-752.8594 598.5001,-752.8593"/>
</g>
<!-- split_reads\n(JSON.GZ)&#45;&gt;chr_array.py -->
<g id="edge19" class="edge">
<title>split_reads\n(JSON.GZ)&#45;&gt;chr_array.py</title>
<path fill="none" stroke="#000000" d="M591.1694,-701.4816C584.2281,-668.1059 567.1212,-601.4645 534,-554.8 531.2186,-550.8813 527.9037,-547.1511 524.3588,-543.6793"/>
<polygon fill="#000000" stroke="#000000" points="526.6343,-541.0186 516.8566,-536.9385 521.9558,-546.2255 526.6343,-541.0186"/>
</g>
<!-- split_reads\n(JSON.GZ)&#45;&gt;label_window_pairs_on_split_read_positions.py -->
<g id="edge27" class="edge">
<title>split_reads\n(JSON.GZ)&#45;&gt;label_window_pairs_on_split_read_positions.py</title>
<path fill="none" stroke="#000000" d="M635.4744,-709.0252C703.2393,-686.967 840.228,-642.3758 921.7454,-615.841"/>
<polygon fill="#000000" stroke="#000000" points="922.9776,-619.1208 931.4032,-612.6973 920.8109,-612.4645 922.9776,-619.1208"/>
</g>
<!-- chr_clipped_read_distance\n(JSON.GZ) -->
<g id="node16" class="node">
<title>chr_clipped_read_distance\n(JSON.GZ)</title>
<polygon fill="none" stroke="#000000" points="304.045,-615.2019 141.955,-615.2019 137.955,-611.2019 137.955,-573.9981 300.045,-573.9981 304.045,-577.9981 304.045,-615.2019"/>
<polyline fill="none" stroke="#000000" points="300.045,-611.2019 137.955,-611.2019 "/>
<polyline fill="none" stroke="#000000" points="300.045,-611.2019 300.045,-573.9981 "/>
<polyline fill="none" stroke="#000000" points="300.045,-611.2019 304.045,-615.2019 "/>
<text text-anchor="middle" x="221" y="-598.8" font-family="Times,serif" font-size="14.00" fill="#000000">chr_clipped_read_distance</text>
<text text-anchor="middle" x="221" y="-582" font-family="Times,serif" font-size="14.00" fill="#000000">(JSON.GZ)</text>
</g>
<!-- clipped_read_distance.py&#45;&gt;chr_clipped_read_distance\n(JSON.GZ) -->
<g id="edge11" class="edge">
<title>clipped_read_distance.py&#45;&gt;chr_clipped_read_distance\n(JSON.GZ)</title>
<path fill="none" stroke="#000000" d="M237.4498,-704.1069C235.794,-686.1165 232.8749,-657.7612 229,-633.4 228.5935,-630.8444 228.1337,-628.2018 227.645,-625.5531"/>
<polygon fill="#000000" stroke="#000000" points="231.0282,-624.6172 225.6689,-615.4778 224.1591,-625.9645 231.0282,-624.6172"/>
</g>
<!-- chr_clipped_read_distance\n(JSON.GZ)&#45;&gt;chr_array.py -->
<g id="edge20" class="edge">
<title>chr_clipped_read_distance\n(JSON.GZ)&#45;&gt;chr_array.py</title>
<path fill="none" stroke="#000000" d="M294.1501,-573.9874C339.1369,-561.3109 395.7776,-545.3504 436.56,-533.8586"/>
<polygon fill="#000000" stroke="#000000" points="437.6331,-537.1926 446.3089,-531.1115 435.7345,-530.4549 437.6331,-537.1926"/>
</g>
<!-- chr_coverage\n(NPY) -->
<g id="node18" class="node">
<title>chr_coverage\n(NPY)</title>
<polygon fill="none" stroke="#000000" points="413.8951,-615.2019 326.1049,-615.2019 322.1049,-611.2019 322.1049,-573.9981 409.8951,-573.9981 413.8951,-577.9981 413.8951,-615.2019"/>
<polyline fill="none" stroke="#000000" points="409.8951,-611.2019 322.1049,-611.2019 "/>
<polyline fill="none" stroke="#000000" points="409.8951,-611.2019 409.8951,-573.9981 "/>
<polyline fill="none" stroke="#000000" points="409.8951,-611.2019 413.8951,-615.2019 "/>
<text text-anchor="middle" x="368" y="-598.8" font-family="Times,serif" font-size="14.00" fill="#000000">chr_coverage</text>
<text text-anchor="middle" x="368" y="-582" font-family="Times,serif" font-size="14.00" fill="#000000">(NPY)</text>
</g>
<!-- coverage.py&#45;&gt;chr_coverage\n(NPY) -->
<g id="edge13" class="edge">
<title>coverage.py&#45;&gt;chr_coverage\n(NPY)</title>
<path fill="none" stroke="#000000" d="M376.5885,-704.1887C374.9939,-683.8425 372.3703,-650.365 370.4417,-625.7563"/>
<polygon fill="#000000" stroke="#000000" points="373.9075,-625.1813 369.6368,-615.4853 366.9289,-625.7282 373.9075,-625.1813"/>
</g>
<!-- chr_coverage\n(NPY)&#45;&gt;chr_array.py -->
<g id="edge21" class="edge">
<title>chr_coverage\n(NPY)&#45;&gt;chr_array.py</title>
<path fill="none" stroke="#000000" d="M401.337,-573.8873C417.0522,-564.1233 435.8751,-552.4284 452.1271,-542.3308"/>
<polygon fill="#000000" stroke="#000000" points="454.2086,-545.1582 460.8555,-536.9078 450.5143,-539.2124 454.2086,-545.1582"/>
</g>
<!-- chr_snv\n(NPY) -->
<g id="node20" class="node">
<title>chr_snv\n(NPY)</title>
<polygon fill="none" stroke="#000000" points="492.3207,-615.2019 435.6793,-615.2019 431.6793,-611.2019 431.6793,-573.9981 488.3207,-573.9981 492.3207,-577.9981 492.3207,-615.2019"/>
<polyline fill="none" stroke="#000000" points="488.3207,-611.2019 431.6793,-611.2019 "/>
<polyline fill="none" stroke="#000000" points="488.3207,-611.2019 488.3207,-573.9981 "/>
<polyline fill="none" stroke="#000000" points="488.3207,-611.2019 492.3207,-615.2019 "/>
<text text-anchor="middle" x="462" y="-598.8" font-family="Times,serif" font-size="14.00" fill="#000000">chr_snv</text>
<text text-anchor="middle" x="462" y="-582" font-family="Times,serif" font-size="14.00" fill="#000000">(NPY)</text>
</g>
<!-- snv.py&#45;&gt;chr_snv\n(NPY) -->
<g id="edge15" class="edge">
<title>snv.py&#45;&gt;chr_snv\n(NPY)</title>
<path fill="none" stroke="#000000" d="M464.5765,-704.1887C464.0982,-683.8425 463.3111,-650.365 462.7325,-625.7563"/>
<polygon fill="#000000" stroke="#000000" points="466.2252,-625.4002 462.491,-615.4853 459.2271,-625.5648 466.2252,-625.4002"/>
</g>
<!-- chr_snv\n(NPY)&#45;&gt;chr_array.py -->
<g id="edge22" class="edge">
<title>chr_snv\n(NPY)&#45;&gt;chr_array.py</title>
<path fill="none" stroke="#000000" d="M469.6511,-573.8873C472.7903,-565.389 476.4699,-555.428 479.8304,-546.3305"/>
<polygon fill="#000000" stroke="#000000" points="483.1291,-547.5011 483.3111,-536.9078 476.5628,-545.0755 483.1291,-547.5011"/>
</g>
<!-- chr_array\n(BCOLZ) -->
<g id="node22" class="node">
<title>chr_array\n(BCOLZ)</title>
<polygon fill="none" stroke="#000000" points="559.7065,-406.2019 492.2935,-406.2019 488.2935,-402.2019 488.2935,-364.9981 555.7065,-364.9981 559.7065,-368.9981 559.7065,-406.2019"/>
<polyline fill="none" stroke="#000000" points="555.7065,-402.2019 488.2935,-402.2019 "/>
<polyline fill="none" stroke="#000000" points="555.7065,-402.2019 555.7065,-364.9981 "/>
<polyline fill="none" stroke="#000000" points="555.7065,-402.2019 559.7065,-406.2019 "/>
<text text-anchor="middle" x="524" y="-389.8" font-family="Times,serif" font-size="14.00" fill="#000000">chr_array</text>
<text text-anchor="middle" x="524" y="-373" font-family="Times,serif" font-size="14.00" fill="#000000">(BCOLZ)</text>
</g>
<!-- chr_array.py&#45;&gt;chr_array\n(BCOLZ) -->
<g id="edge25" class="edge">
<title>chr_array.py&#45;&gt;chr_array\n(BCOLZ)</title>
<path fill="none" stroke="#000000" d="M494.6563,-500.5584C500.2115,-478.7948 509.5823,-442.0833 516.2389,-416.0054"/>
<polygon fill="#000000" stroke="#000000" points="519.6489,-416.7974 518.7309,-406.2424 512.8663,-415.0661 519.6489,-416.7974"/>
</g>
<!-- chr_array\n(BCOLZ)&#45;&gt;create_window_pairs.py\nsplit_reads -->
<g id="edge38" class="edge">
<title>chr_array\n(BCOLZ)&#45;&gt;create_window_pairs.py\nsplit_reads</title>
<path fill="none" stroke="#000000" d="M524,-364.9488C524,-356.7105 524,-347.0489 524,-338.002"/>
<polygon fill="#000000" stroke="#000000" points="527.5001,-337.7862 524,-327.7862 520.5001,-337.7862 527.5001,-337.7862"/>
</g>
<!-- chr_array\n(BCOLZ)&#45;&gt;create_window_pairs.py\nSV_callset -->
<g id="edge39" class="edge">
<title>chr_array\n(BCOLZ)&#45;&gt;create_window_pairs.py\nSV_callset</title>
<path fill="none" stroke="#000000" d="M559.9598,-381.1489C657.8337,-369.0341 931.0959,-335.2099 1072.2099,-317.7428"/>
<polygon fill="#000000" stroke="#000000" points="1072.6432,-321.216 1082.1375,-316.514 1071.7832,-314.269 1072.6432,-321.216"/>
</g>
<!-- labels\nsplit_reads\n(JSON.GZ) -->
<g id="node24" class="node">
<title>labels\nsplit_reads\n(JSON.GZ)</title>
<polygon fill="none" stroke="#000000" points="762.4208,-483.0014 685.5792,-483.0014 681.5792,-479.0014 681.5792,-424.1986 758.4208,-424.1986 762.4208,-428.1986 762.4208,-483.0014"/>
<polyline fill="none" stroke="#000000" points="758.4208,-479.0014 681.5792,-479.0014 "/>
<polyline fill="none" stroke="#000000" points="758.4208,-479.0014 758.4208,-424.1986 "/>
<polyline fill="none" stroke="#000000" points="758.4208,-479.0014 762.4208,-483.0014 "/>
<text text-anchor="middle" x="722" y="-466.2" font-family="Times,serif" font-size="14.00" fill="#000000">labels</text>
<text text-anchor="middle" x="722" y="-449.4" font-family="Times,serif" font-size="14.00" fill="#000000">split_reads</text>
<text text-anchor="middle" x="722" y="-432.6" font-family="Times,serif" font-size="14.00" fill="#000000">(JSON.GZ)</text>
</g>
<!-- label_window_pairs_on_split_read_positions.py&#45;&gt;labels\nsplit_reads\n(JSON.GZ) -->
<g id="edge29" class="edge">
<title>label_window_pairs_on_split_read_positions.py&#45;&gt;labels\nsplit_reads\n(JSON.GZ)</title>
<path fill="none" stroke="#000000" d="M953.1684,-576.599C907.1346,-552.1056 824.4437,-508.1078 771.4501,-479.9112"/>
<polygon fill="#000000" stroke="#000000" points="773.0361,-476.7905 762.5639,-475.1831 769.748,-482.9702 773.0361,-476.7905"/>
</g>
<!-- labels\nsplit_reads\n(JSON.GZ)&#45;&gt;create_window_pairs.py\nsplit_reads -->
<g id="edge37" class="edge">
<title>labels\nsplit_reads\n(JSON.GZ)&#45;&gt;create_window_pairs.py\nsplit_reads</title>
<path fill="none" stroke="#000000" d="M682.4076,-424.2856C646.8268,-397.9414 594.9996,-359.5684 560.4265,-333.9703"/>
<polygon fill="#000000" stroke="#000000" points="562.1484,-330.8903 552.0288,-327.7526 557.983,-336.5161 562.1484,-330.8903"/>
</g>
<!-- labels\nSV callset\n(JSON.GZ) -->
<g id="node30" class="node">
<title>labels\nSV callset\n(JSON.GZ)</title>
<polygon fill="none" stroke="#000000" points="1297.4208,-483.0014 1220.5792,-483.0014 1216.5792,-479.0014 1216.5792,-424.1986 1293.4208,-424.1986 1297.4208,-428.1986 1297.4208,-483.0014"/>
<polyline fill="none" stroke="#000000" points="1293.4208,-479.0014 1216.5792,-479.0014 "/>
<polyline fill="none" stroke="#000000" points="1293.4208,-479.0014 1293.4208,-424.1986 "/>
<polyline fill="none" stroke="#000000" points="1293.4208,-479.0014 1297.4208,-483.0014 "/>
<text text-anchor="middle" x="1257" y="-466.2" font-family="Times,serif" font-size="14.00" fill="#000000">labels</text>
<text text-anchor="middle" x="1257" y="-449.4" font-family="Times,serif" font-size="14.00" fill="#000000">SV callset</text>
<text text-anchor="middle" x="1257" y="-432.6" font-family="Times,serif" font-size="14.00" fill="#000000">(JSON.GZ)</text>
</g>
<!-- label_window_pairs_on_svcallset.py&#45;&gt;labels\nSV callset\n(JSON.GZ) -->
<g id="edge33" class="edge">
<title>label_window_pairs_on_svcallset.py&#45;&gt;labels\nSV callset\n(JSON.GZ)</title>
<path fill="none" stroke="#000000" d="M1295.3378,-576.4554C1288.7642,-555.39 1277.7323,-520.0375 1269.1857,-492.6498"/>
<polygon fill="#000000" stroke="#000000" points="1272.4824,-491.4645 1266.1623,-482.9611 1265.8002,-493.5498 1272.4824,-491.4645"/>
</g>
<!-- windows\nsplit_reads\n(JSON.GZ) -->
<g id="node31" class="node">
<title>windows\nsplit_reads\n(JSON.GZ)</title>
<polygon fill="none" stroke="#000000" points="564.4208,-249.4014 487.5792,-249.4014 483.5792,-245.4014 483.5792,-190.5986 560.4208,-190.5986 564.4208,-194.5986 564.4208,-249.4014"/>
<polyline fill="none" stroke="#000000" points="560.4208,-245.4014 483.5792,-245.4014 "/>
<polyline fill="none" stroke="#000000" points="560.4208,-245.4014 560.4208,-190.5986 "/>
<polyline fill="none" stroke="#000000" points="560.4208,-245.4014 564.4208,-249.4014 "/>
<text text-anchor="middle" x="524" y="-232.6" font-family="Times,serif" font-size="14.00" fill="#000000">windows</text>
<text text-anchor="middle" x="524" y="-215.8" font-family="Times,serif" font-size="14.00" fill="#000000">split_reads</text>
<text text-anchor="middle" x="524" y="-199" font-family="Times,serif" font-size="14.00" fill="#000000">(JSON.GZ)</text>
</g>
<!-- create_window_pairs.py\nsplit_reads&#45;&gt;windows\nsplit_reads\n(JSON.GZ) -->
<g id="edge41" class="edge">
<title>create_window_pairs.py\nsplit_reads&#45;&gt;windows\nsplit_reads\n(JSON.GZ)</title>
<path fill="none" stroke="#000000" d="M524,-286.3822C524,-278.3504 524,-268.8635 524,-259.613"/>
<polygon fill="#000000" stroke="#000000" points="527.5001,-259.3594 524,-249.3595 520.5001,-259.3595 527.5001,-259.3594"/>
</g>
<!-- windows\nSV_callset\n(JSON.GZ) -->
<g id="node32" class="node">
<title>windows\nSV_callset\n(JSON.GZ)</title>
<polygon fill="none" stroke="#000000" points="1199.4208,-249.4014 1122.5792,-249.4014 1118.5792,-245.4014 1118.5792,-190.5986 1195.4208,-190.5986 1199.4208,-194.5986 1199.4208,-249.4014"/>
<polyline fill="none" stroke="#000000" points="1195.4208,-245.4014 1118.5792,-245.4014 "/>
<polyline fill="none" stroke="#000000" points="1195.4208,-245.4014 1195.4208,-190.5986 "/>
<polyline fill="none" stroke="#000000" points="1195.4208,-245.4014 1199.4208,-249.4014 "/>
<text text-anchor="middle" x="1159" y="-232.6" font-family="Times,serif" font-size="14.00" fill="#000000">windows</text>
<text text-anchor="middle" x="1159" y="-215.8" font-family="Times,serif" font-size="14.00" fill="#000000">SV_callset</text>
<text text-anchor="middle" x="1159" y="-199" font-family="Times,serif" font-size="14.00" fill="#000000">(JSON.GZ)</text>
</g>
<!-- create_window_pairs.py\nSV_callset&#45;&gt;windows\nSV_callset\n(JSON.GZ) -->
<g id="edge40" class="edge">
<title>create_window_pairs.py\nSV_callset&#45;&gt;windows\nSV_callset\n(JSON.GZ)</title>
<path fill="none" stroke="#000000" d="M1159,-286.3822C1159,-278.3504 1159,-268.8635 1159,-259.613"/>
<polygon fill="#000000" stroke="#000000" points="1162.5001,-259.3594 1159,-249.3595 1155.5001,-259.3595 1162.5001,-259.3594"/>
</g>
<!-- train_model_with_fit.py\ncross&#45;validation\nsplit_reads -->
<g id="node28" class="node">
<title>train_model_with_fit.py\ncross&#45;validation\nsplit_reads</title>
<polygon fill="none" stroke="#000000" points="600.4826,-154.0014 447.5174,-154.0014 447.5174,-95.1986 600.4826,-95.1986 600.4826,-154.0014"/>
<text text-anchor="middle" x="524" y="-137.2" font-family="Times,serif" font-size="14.00" fill="#000000">train_model_with_fit.py</text>
<text text-anchor="middle" x="524" y="-120.4" font-family="Times,serif" font-size="14.00" fill="#000000">cross&#45;validation</text>
<text text-anchor="middle" x="524" y="-103.6" font-family="Times,serif" font-size="14.00" fill="#000000">split_reads</text>
</g>
<!-- SV calls\nsplit_reads\n(BEDPE) -->
<g id="node33" class="node">
<title>SV calls\nsplit_reads\n(BEDPE)</title>
<polygon fill="none" stroke="#000000" points="562.1516,-58.6014 489.8484,-58.6014 485.8484,-54.6014 485.8484,.2014 558.1516,.2014 562.1516,-3.7986 562.1516,-58.6014"/>
<polyline fill="none" stroke="#000000" points="558.1516,-54.6014 485.8484,-54.6014 "/>
<polyline fill="none" stroke="#000000" points="558.1516,-54.6014 558.1516,.2014 "/>
<polyline fill="none" stroke="#000000" points="558.1516,-54.6014 562.1516,-58.6014 "/>
<text text-anchor="middle" x="524" y="-41.8" font-family="Times,serif" font-size="14.00" fill="#000000">SV calls</text>
<text text-anchor="middle" x="524" y="-25" font-family="Times,serif" font-size="14.00" fill="#000000">split_reads</text>
<text text-anchor="middle" x="524" y="-8.2" font-family="Times,serif" font-size="14.00" fill="#000000">(BEDPE)</text>
</g>
<!-- train_model_with_fit.py\ncross&#45;validation\nsplit_reads&#45;&gt;SV calls\nsplit_reads\n(BEDPE) -->
<g id="edge44" class="edge">
<title>train_model_with_fit.py\ncross&#45;validation\nsplit_reads&#45;&gt;SV calls\nsplit_reads\n(BEDPE)</title>
<path fill="none" stroke="#000000" d="M524,-95.1984C524,-86.8562 524,-77.634 524,-68.7943"/>
<polygon fill="#000000" stroke="#000000" points="527.5001,-68.6687 524,-58.6687 520.5001,-68.6688 527.5001,-68.6687"/>
</g>
<!-- train_model_with_fit.py\ncross&#45;validation\nSV_callset -->
<g id="node29" class="node">
<title>train_model_with_fit.py\ncross&#45;validation\nSV_callset</title>
<polygon fill="none" stroke="#000000" points="1235.4826,-154.0014 1082.5174,-154.0014 1082.5174,-95.1986 1235.4826,-95.1986 1235.4826,-154.0014"/>
<text text-anchor="middle" x="1159" y="-137.2" font-family="Times,serif" font-size="14.00" fill="#000000">train_model_with_fit.py</text>
<text text-anchor="middle" x="1159" y="-120.4" font-family="Times,serif" font-size="14.00" fill="#000000">cross&#45;validation</text>
<text text-anchor="middle" x="1159" y="-103.6" font-family="Times,serif" font-size="14.00" fill="#000000">SV_callset</text>
</g>
<!-- SV calls\nSV_callset\n(BEDPE) -->
<g id="node34" class="node">
<title>SV calls\nSV_callset\n(BEDPE)</title>
<polygon fill="none" stroke="#000000" points="1197.1502,-58.6014 1124.8498,-58.6014 1120.8498,-54.6014 1120.8498,.2014 1193.1502,.2014 1197.1502,-3.7986 1197.1502,-58.6014"/>
<polyline fill="none" stroke="#000000" points="1193.1502,-54.6014 1120.8498,-54.6014 "/>
<polyline fill="none" stroke="#000000" points="1193.1502,-54.6014 1193.1502,.2014 "/>
<polyline fill="none" stroke="#000000" points="1193.1502,-54.6014 1197.1502,-58.6014 "/>
<text text-anchor="middle" x="1159" y="-41.8" font-family="Times,serif" font-size="14.00" fill="#000000">SV calls</text>
<text text-anchor="middle" x="1159" y="-25" font-family="Times,serif" font-size="14.00" fill="#000000">SV_callset</text>
<text text-anchor="middle" x="1159" y="-8.2" font-family="Times,serif" font-size="14.00" fill="#000000">(BEDPE)</text>
</g>
<!-- train_model_with_fit.py\ncross&#45;validation\nSV_callset&#45;&gt;SV calls\nSV_callset\n(BEDPE) -->
<g id="edge45" class="edge">
<title>train_model_with_fit.py\ncross&#45;validation\nSV_callset&#45;&gt;SV calls\nSV_callset\n(BEDPE)</title>
<path fill="none" stroke="#000000" d="M1159,-95.1984C1159,-86.8562 1159,-77.634 1159,-68.7943"/>
<polygon fill="#000000" stroke="#000000" points="1162.5001,-68.6687 1159,-58.6687 1155.5001,-68.6688 1162.5001,-68.6687"/>
</g>
<!-- labels\nSV callset\n(JSON.GZ)&#45;&gt;create_window_pairs.py\nSV_callset -->
<g id="edge36" class="edge">
<title>labels\nSV callset\n(JSON.GZ)&#45;&gt;create_window_pairs.py\nSV_callset</title>
<path fill="none" stroke="#000000" d="M1237.4038,-424.2856C1220.3154,-398.7228 1195.6559,-361.8342 1178.574,-336.2812"/>
<polygon fill="#000000" stroke="#000000" points="1181.3401,-334.1211 1172.8728,-327.7526 1175.5206,-338.0113 1181.3401,-334.1211"/>
</g>
<!-- windows\nsplit_reads\n(JSON.GZ)&#45;&gt;train_model_with_fit.py\ncross&#45;validation\nsplit_reads -->
<g id="edge42" class="edge">
<title>windows\nsplit_reads\n(JSON.GZ)&#45;&gt;train_model_with_fit.py\ncross&#45;validation\nsplit_reads</title>
<path fill="none" stroke="#000000" d="M524,-190.5984C524,-182.2562 524,-173.034 524,-164.1943"/>
<polygon fill="#000000" stroke="#000000" points="527.5001,-164.0687 524,-154.0687 520.5001,-164.0688 527.5001,-164.0687"/>
</g>
<!-- windows\nSV_callset\n(JSON.GZ)&#45;&gt;train_model_with_fit.py\ncross&#45;validation\nSV_callset -->
<g id="edge43" class="edge">
<title>windows\nSV_callset\n(JSON.GZ)&#45;&gt;train_model_with_fit.py\ncross&#45;validation\nSV_callset</title>
<path fill="none" stroke="#000000" d="M1159,-190.5984C1159,-182.2562 1159,-173.034 1159,-164.1943"/>
<polygon fill="#000000" stroke="#000000" points="1162.5001,-164.0687 1159,-154.0687 1155.5001,-164.0688 1162.5001,-164.0687"/>
</g>
</g>
</svg>
